<?xml version="1.0" encoding="UTF-8"?>
<svg version="1.1" xmlns="http://www.w3.org/2000/svg" width="4001" height="4001">
<path d="M0 0 C1320.33 0 2640.66 0 4001 0 C4001 1320.33 4001 2640.66 4001 4001 C2680.67 4001 1360.34 4001 0 4001 C0 2680.67 0 1360.34 0 0 Z " fill="#FEFEFE" transform="translate(0,0)"/>
<path d="M0 0 C62.80936843 -0.18849881 125.61877 -0.36339799 188.42834473 -0.46577454 C189.82232821 -0.46805248 189.82232821 -0.46805248 191.24447297 -0.47037644 C211.44023707 -0.50329698 231.63600418 -0.53376919 251.83177575 -0.56171862 C261.73550742 -0.57543955 271.63923827 -0.58970161 281.54296875 -0.60424805 C282.52851886 -0.6056864 283.51406896 -0.60712475 284.52948422 -0.60860668 C316.48487461 -0.65549731 348.4400513 -0.73813329 380.39531218 -0.83926943 C413.22836264 -0.94299518 446.0612948 -1.0107322 478.89450634 -1.03306489 C483.52995704 -1.03623468 488.16540734 -1.03981669 492.80085754 -1.04364967 C493.71319748 -1.04439133 494.62553741 -1.04513298 495.56552401 -1.04589711 C510.26291768 -1.0589056 524.959946 -1.10994954 539.65719057 -1.17515237 C554.42621945 -1.23986432 569.19488545 -1.26466003 583.96405119 -1.24851515 C592.74338496 -1.2401365 601.52139255 -1.26255742 610.30048729 -1.32877297 C616.16267784 -1.36997447 622.02399851 -1.37133646 627.88624876 -1.34014995 C631.22924436 -1.3235111 634.56768899 -1.3303921 637.91075009 -1.37371501 C658.81677793 -1.62896089 658.81677793 -1.62896089 663.24739552 2.35882223 C665.34974916 5.18773537 666.6620972 7.75422092 668 11 C669.13105408 12.71670885 670.2935268 14.41355448 671.5 16.078125 C672.66808781 17.80112074 673.83470821 19.52511204 675 21.25 C680.28300638 29.03576395 685.61478664 36.78458938 691 44.5 C697.57644314 53.9265819 704.07097992 63.40633932 710.53515625 72.91015625 C714.90340799 79.33236212 719.30552714 85.73103546 723.71142578 92.12744141 C724.99573734 93.9938055 726.27755351 95.86185805 727.55859375 97.73046875 C732.92290657 105.55174943 738.32631111 113.344767 743.75 121.125 C750.40731212 130.67817169 756.98661614 140.28220169 763.53515625 149.91015625 C767.90340799 156.33236212 772.30552714 162.73103546 776.71142578 169.12744141 C777.99573734 170.9938055 779.27755351 172.86185805 780.55859375 174.73046875 C785.96531943 182.61367332 791.4102974 190.46936421 796.875 198.3125 C803.47051538 207.78023085 810.00521884 217.28765979 816.50927734 226.81835938 C818.87427983 230.27948977 821.24906678 233.73386751 823.625 237.1875 C824.07141846 237.8364624 824.51783691 238.4854248 824.9777832 239.15405273 C825.87087138 240.45218945 826.76401891 241.75028533 827.65722656 243.04833984 C829.93908519 246.36491764 832.21945755 249.6825171 834.5 253 C835.41665976 254.33333808 836.33332642 255.66667142 837.25 257 C842.75 265 842.75 265 844.1237793 266.99829102 C845.04443216 268.33737791 845.96516841 269.67640747 846.88598633 271.01538086 C849.11733692 274.26023002 851.34743948 277.50591802 853.57421875 280.75390625 C858.97618979 288.62898305 864.41570531 296.47704213 869.875 304.3125 C877.50231993 315.26240833 885.04578139 326.26764191 892.56347656 337.29296875 C898.9557344 346.66456767 905.38657583 356.00716546 911.875 365.3125 C919.06851576 375.63085554 926.16782552 386.01099098 933.24023438 396.41259766 C940.72684172 407.42023704 948.26126762 418.39234743 955.875 429.3125 C962.49163591 438.80254642 969.02879671 448.34426889 975.53515625 457.91015625 C979.90340799 464.33236212 984.30552714 470.73103546 988.71142578 477.12744141 C989.99573734 478.9938055 991.27755351 480.86185805 992.55859375 482.73046875 C997.92290657 490.55174943 1003.32631111 498.344767 1008.75 506.125 C1015.40462719 515.67431884 1021.98127615 525.27448105 1028.52734375 534.8984375 C1035.52911 545.19232303 1042.60440897 555.43536597 1049.6953125 565.66796875 C1053.67642405 571.41865504 1057.63259569 577.18654998 1061.59277344 582.95166016 C1063.89429181 586.30171899 1066.19720641 589.65081767 1068.5 593 C1069.41667358 594.33332858 1070.33334024 595.66666192 1071.25 597 C1071.70375 597.66 1072.1575 598.32 1072.625 599 C1087.75000001 621.00000001 1087.75000001 621.00000001 1089.1237793 622.99829102 C1090.04443216 624.33737791 1090.96516841 625.67640747 1091.88598633 627.01538086 C1094.11733692 630.26023002 1096.34743948 633.50591802 1098.57421875 636.75390625 C1103.9761896 644.62898277 1109.41566614 652.47706961 1114.875 660.3125 C1121.4735365 669.78456762 1128.01109607 679.29643259 1134.51806641 688.83154297 C1136.8379506 692.22614123 1139.16869809 695.61323725 1141.5 699 C1144.34426001 703.13195469 1147.18416402 707.26674617 1150.01171875 711.41015625 C1155.92469291 720.07362896 1161.87520134 728.70887851 1167.875 737.3125 C1174.49173366 746.80247746 1181.02879755 756.34427012 1187.53515625 765.91015625 C1191.90340799 772.33236212 1196.30552714 778.73103546 1200.71142578 785.12744141 C1201.99573734 786.9938055 1203.27755351 788.86185805 1204.55859375 790.73046875 C1210.00773655 798.67560468 1215.49480955 806.59358887 1221 814.5 C1222.36464702 816.46219529 1223.72923125 818.42443425 1225.09375 820.38671875 C1227.54666229 823.91398257 1230.00521363 827.43718205 1232.46875 830.95703125 C1233.47937832 832.40870684 1234.48980959 833.86051965 1235.5 835.3125 C1235.96277344 835.96992187 1236.42554687 836.62734375 1236.90234375 837.3046875 C1240 841.77264651 1240 841.77264651 1240 844 C1247.49323144 836.7484857 1254.19814619 828.81756929 1260.75 820.71875 C1263.64475711 817.22091849 1266.69589539 813.88214596 1269.75390625 810.52734375 C1272.06187598 807.93037607 1274.25555863 805.26595987 1276.4375 802.5625 C1280.29708603 797.79003797 1284.37199991 793.26890891 1288.52734375 788.75390625 C1291.74709519 785.16792716 1294.75905176 781.43298508 1297.78515625 777.68359375 C1300.66480887 774.19449084 1303.70693876 770.87003079 1306.75390625 767.52734375 C1309.06187598 764.93037607 1311.25555863 762.26595987 1313.4375 759.5625 C1317.29708603 754.79003797 1321.37199991 750.26890891 1325.52734375 745.75390625 C1328.74709519 742.16792716 1331.75905176 738.43298508 1334.78515625 734.68359375 C1336.95632827 732.05291443 1339.20241357 729.52057576 1341.5 727 C1344.61458668 723.58260628 1347.5918662 720.0947765 1350.5 716.5 C1354.11032442 712.03723787 1357.88427929 707.77280467 1361.75 703.53125 C1364.07862053 700.9115519 1366.29562947 698.2248469 1368.5 695.5 C1372.11149134 691.03579543 1375.88660694 686.76997886 1379.75390625 682.52734375 C1382.06187598 679.93037607 1384.25555863 677.26595987 1386.4375 674.5625 C1390.29708603 669.79003797 1394.37199991 665.26890891 1398.52734375 660.75390625 C1401.74709519 657.16792716 1404.75905176 653.43298508 1407.78515625 649.68359375 C1409.95632827 647.05291443 1412.20241357 644.52057576 1414.5 642 C1417.61458668 638.58260628 1420.5918662 635.0947765 1423.5 631.5 C1427.11149134 627.03579543 1430.88660694 622.76997886 1434.75390625 618.52734375 C1437.06187598 615.93037607 1439.25555863 613.26595987 1441.4375 610.5625 C1445.29708603 605.79003797 1449.37199991 601.26890891 1453.52734375 596.75390625 C1456.74709519 593.16792716 1459.75905176 589.43298508 1462.78515625 585.68359375 C1464.95632827 583.05291443 1467.20241357 580.52057576 1469.5 578 C1472.61458668 574.58260628 1475.5918662 571.0947765 1478.5 567.5 C1482.11149134 563.03579543 1485.88660694 558.76997886 1489.75390625 554.52734375 C1492.06187598 551.93037607 1494.25555863 549.26595987 1496.4375 546.5625 C1500.29708603 541.79003797 1504.37199991 537.26890891 1508.52734375 532.75390625 C1511.74709519 529.16792716 1514.75905176 525.43298508 1517.78515625 521.68359375 C1519.95632827 519.05291443 1522.20241357 516.52057576 1524.5 514 C1527.61458668 510.58260628 1530.5918662 507.0947765 1533.5 503.5 C1537.11032442 499.03723787 1540.88427929 494.77280467 1544.75 490.53125 C1547.07862053 487.9115519 1549.29562947 485.2248469 1551.5 482.5 C1555.11149134 478.03579543 1558.88660694 473.76997886 1562.75390625 469.52734375 C1565.06187598 466.93037607 1567.25555863 464.26595987 1569.4375 461.5625 C1573.29708603 456.79003797 1577.37199991 452.26890891 1581.52734375 447.75390625 C1584.74709519 444.16792716 1587.75905176 440.43298508 1590.78515625 436.68359375 C1592.95632827 434.05291443 1595.20241357 431.52057576 1597.5 429 C1600.61458668 425.58260628 1603.5918662 422.0947765 1606.5 418.5 C1610.11149134 414.03579543 1613.88660694 409.76997886 1617.75390625 405.52734375 C1620.06187598 402.93037607 1622.25555863 400.26595987 1624.4375 397.5625 C1628.29708603 392.79003797 1632.37199991 388.26890891 1636.52734375 383.75390625 C1639.74709519 380.16792716 1642.75905176 376.43298508 1645.78515625 372.68359375 C1647.95632827 370.05291443 1650.20241357 367.52057576 1652.5 365 C1655.61458668 361.58260628 1658.5918662 358.0947765 1661.5 354.5 C1665.11149134 350.03579543 1668.88660694 345.76997886 1672.75390625 341.52734375 C1675.06187598 338.93037607 1677.25555863 336.26595987 1679.4375 333.5625 C1683.29708603 328.79003797 1687.37199991 324.26890891 1691.52734375 319.75390625 C1694.74709519 316.16792716 1697.75905176 312.43298508 1700.78515625 308.68359375 C1702.95632827 306.05291443 1705.20241357 303.52057576 1707.5 301 C1710.61458668 297.58260628 1713.5918662 294.0947765 1716.5 290.5 C1720.11032442 286.03723787 1723.88427929 281.77280467 1727.75 277.53125 C1730.07862053 274.9115519 1732.29562947 272.2248469 1734.5 269.5 C1738.11149134 265.03579543 1741.88660694 260.76997886 1745.75390625 256.52734375 C1748.06187598 253.93037607 1750.25555863 251.26595987 1752.4375 248.5625 C1756.29708603 243.79003797 1760.37199991 239.26890891 1764.52734375 234.75390625 C1767.74709519 231.16792716 1770.75905176 227.43298508 1773.78515625 223.68359375 C1775.95632827 221.05291443 1778.20241357 218.52057576 1780.5 216 C1783.61458668 212.58260628 1786.5918662 209.0947765 1789.5 205.5 C1793.11149134 201.03579543 1796.88660694 196.76997886 1800.75390625 192.52734375 C1803.06187598 189.93037607 1805.25555863 187.26595987 1807.4375 184.5625 C1811.29825137 179.788597 1815.37437075 175.26611572 1819.53125 170.75 C1821.94378104 168.06262366 1824.2325621 165.31034556 1826.5 162.5 C1830.33719031 157.74404581 1834.39385101 153.24495199 1838.53125 148.75 C1840.94378104 146.06262366 1843.2325621 143.31034556 1845.5 140.5 C1849.33719031 135.74404581 1853.39385101 131.24495199 1857.53125 126.75 C1859.94378104 124.06262366 1862.2325621 121.31034556 1864.5 118.5 C1868.33719031 113.74404581 1872.39385101 109.24495199 1876.53125 104.75 C1878.94378104 102.06262366 1881.2325621 99.31034556 1883.5 96.5 C1887.33719031 91.74404581 1891.39385101 87.24495199 1895.53125 82.75 C1897.94378104 80.06262366 1900.2325621 77.31034556 1902.5 74.5 C1906.33719031 69.74404581 1910.39385101 65.24495199 1914.53125 60.75 C1916.94378104 58.06262366 1919.2325621 55.31034556 1921.5 52.5 C1925.33719031 47.74404581 1929.39385101 43.24495199 1933.53125 38.75 C1935.94378104 36.06262366 1938.2325621 33.31034556 1940.5 30.5 C1944.32849821 25.75481913 1948.3745953 21.26487 1952.50390625 16.78125 C1955.83741066 13.06692271 1958.97062274 9.2072805 1962.08984375 5.3125 C1962.72019531 4.549375 1963.35054687 3.78625 1964 3 C1964.37740232 2.46474544 1964.75480463 1.92949087 1965.14364338 1.37801647 C1968.04713248 -0.77731067 1971.13634807 -0.40211638 1974.61186218 -0.36076355 C1975.78564485 -0.36460846 1975.78564485 -0.36460846 1976.98314029 -0.36853105 C1979.61356081 -0.37348497 1982.24341138 -0.3569498 1984.8737793 -0.34057617 C1986.75597113 -0.33973025 1988.63816396 -0.34020437 1990.52035522 -0.34190369 C1995.63786921 -0.34276641 2000.75517336 -0.32509581 2005.87263846 -0.30418181 C2011.21780068 -0.28546117 2016.56296741 -0.28366822 2021.90815735 -0.28010559 C2032.03352902 -0.27077155 2042.15880382 -0.24613938 2052.28413278 -0.21605712 C2063.80996701 -0.18255539 2075.3358058 -0.16603774 2086.86167657 -0.15097082 C2110.57450481 -0.11959101 2134.28724698 -0.06680411 2158 0 C2157.05742609 1.27167386 2156.11276224 2.5417988 2155.16723633 3.8112793 C2154.37848869 4.87248238 2154.37848869 4.87248238 2153.57380676 5.9551239 C2151.42764096 8.74367664 2149.10406499 11.25273116 2146.6875 13.8125 C2142.30769194 18.50269991 2138.20564148 23.35135631 2134.1796875 28.3515625 C2132.02242601 30.97275119 2129.78689 33.49154281 2127.5 36 C2124.40444804 39.39598682 2121.44848793 42.86171531 2118.5625 46.4375 C2114.70291397 51.20996203 2110.62800009 55.73109109 2106.47265625 60.24609375 C2103.25290481 63.83207284 2100.24094824 67.56701492 2097.21484375 71.31640625 C2095.04367173 73.94708557 2092.79758643 76.47942424 2090.5 79 C2087.38541332 82.41739372 2084.4081338 85.9052235 2081.5 89.5 C2077.88850866 93.96420457 2074.11339306 98.23002114 2070.24609375 102.47265625 C2067.93812402 105.06962393 2065.74444137 107.73404013 2063.5625 110.4375 C2059.70291397 115.20996203 2055.62800009 119.73109109 2051.47265625 124.24609375 C2048.25290481 127.83207284 2045.24094824 131.56701492 2042.21484375 135.31640625 C2039.33519113 138.80550916 2036.29306124 142.12996921 2033.24609375 145.47265625 C2030.93812402 148.06962393 2028.74444137 150.73404013 2026.5625 153.4375 C2022.70291397 158.20996203 2018.62800009 162.73109109 2014.47265625 167.24609375 C2011.25290481 170.83207284 2008.24094824 174.56701492 2005.21484375 178.31640625 C2003.04367173 180.94708557 2000.79758643 183.47942424 1998.5 186 C1995.38541332 189.41739372 1992.4081338 192.9052235 1989.5 196.5 C1985.88967558 200.96276213 1982.11572071 205.22719533 1978.25 209.46875 C1975.92137947 212.0884481 1973.70437053 214.7751531 1971.5 217.5 C1967.88850866 221.96420457 1964.11339306 226.23002114 1960.24609375 230.47265625 C1957.93812402 233.06962393 1955.74444137 235.73404013 1953.5625 238.4375 C1949.70291397 243.20996203 1945.62800009 247.73109109 1941.47265625 252.24609375 C1938.25290481 255.83207284 1935.24094824 259.56701492 1932.21484375 263.31640625 C1929.33519113 266.80550916 1926.29306124 270.12996921 1923.24609375 273.47265625 C1920.93812402 276.06962393 1918.74444137 278.73404013 1916.5625 281.4375 C1912.70291397 286.20996203 1908.62800009 290.73109109 1904.47265625 295.24609375 C1901.25290481 298.83207284 1898.24094824 302.56701492 1895.21484375 306.31640625 C1893.04367173 308.94708557 1890.79758643 311.47942424 1888.5 314 C1885.38541332 317.41739372 1882.4081338 320.9052235 1879.5 324.5 C1875.88850866 328.96420457 1872.11339306 333.23002114 1868.24609375 337.47265625 C1865.93812402 340.06962393 1863.74444137 342.73404013 1861.5625 345.4375 C1857.70291397 350.20996203 1853.62800009 354.73109109 1849.47265625 359.24609375 C1846.25290481 362.83207284 1843.24094824 366.56701492 1840.21484375 370.31640625 C1838.04367173 372.94708557 1835.79758643 375.47942424 1833.5 378 C1830.38541332 381.41739372 1827.4081338 384.9052235 1824.5 388.5 C1820.88850866 392.96420457 1817.11339306 397.23002114 1813.24609375 401.47265625 C1810.93812402 404.06962393 1808.74444137 406.73404013 1806.5625 409.4375 C1802.70291397 414.20996203 1798.62800009 418.73109109 1794.47265625 423.24609375 C1791.25290481 426.83207284 1788.24094824 430.56701492 1785.21484375 434.31640625 C1782.33519113 437.80550916 1779.29306124 441.12996921 1776.24609375 444.47265625 C1773.93812402 447.06962393 1771.74444137 449.73404013 1769.5625 452.4375 C1765.70291397 457.20996203 1761.62800009 461.73109109 1757.47265625 466.24609375 C1754.25290481 469.83207284 1751.24094824 473.56701492 1748.21484375 477.31640625 C1746.04367173 479.94708557 1743.79758643 482.47942424 1741.5 485 C1738.38541332 488.41739372 1735.4081338 491.9052235 1732.5 495.5 C1728.88850866 499.96420457 1725.11339306 504.23002114 1721.24609375 508.47265625 C1718.93812402 511.06962393 1716.74444137 513.73404013 1714.5625 516.4375 C1710.70291397 521.20996203 1706.62800009 525.73109109 1702.47265625 530.24609375 C1699.25290481 533.83207284 1696.24094824 537.56701492 1693.21484375 541.31640625 C1691.04367173 543.94708557 1688.79758643 546.47942424 1686.5 549 C1683.38541332 552.41739372 1680.4081338 555.9052235 1677.5 559.5 C1673.88850866 563.96420457 1670.11339306 568.23002114 1666.24609375 572.47265625 C1663.93812402 575.06962393 1661.74444137 577.73404013 1659.5625 580.4375 C1655.70291397 585.20996203 1651.62800009 589.73109109 1647.47265625 594.24609375 C1644.25290481 597.83207284 1641.24094824 601.56701492 1638.21484375 605.31640625 C1636.04367173 607.94708557 1633.79758643 610.47942424 1631.5 613 C1628.38541332 616.41739372 1625.4081338 619.9052235 1622.5 623.5 C1618.88850866 627.96420457 1615.11339306 632.23002114 1611.24609375 636.47265625 C1608.93812402 639.06962393 1606.74444137 641.73404013 1604.5625 644.4375 C1600.70291397 649.20996203 1596.62800009 653.73109109 1592.47265625 658.24609375 C1589.25290481 661.83207284 1586.24094824 665.56701492 1583.21484375 669.31640625 C1580.33519113 672.80550916 1577.29306124 676.12996921 1574.24609375 679.47265625 C1571.93812402 682.06962393 1569.74444137 684.73404013 1567.5625 687.4375 C1563.70291397 692.20996203 1559.62800009 696.73109109 1555.47265625 701.24609375 C1552.25290481 704.83207284 1549.24094824 708.56701492 1546.21484375 712.31640625 C1544.04367173 714.94708557 1541.79758643 717.47942424 1539.5 720 C1536.38541332 723.41739372 1533.4081338 726.9052235 1530.5 730.5 C1526.88967558 734.96276213 1523.11572071 739.22719533 1519.25 743.46875 C1516.92137947 746.0884481 1514.70437053 748.7751531 1512.5 751.5 C1508.88850866 755.96420457 1505.11339306 760.23002114 1501.24609375 764.47265625 C1498.93812402 767.06962393 1496.74444137 769.73404013 1494.5625 772.4375 C1490.70291397 777.20996203 1486.62800009 781.73109109 1482.47265625 786.24609375 C1479.25290481 789.83207284 1476.24094824 793.56701492 1473.21484375 797.31640625 C1471.04367173 799.94708557 1468.79758643 802.47942424 1466.5 805 C1463.38541332 808.41739372 1460.4081338 811.9052235 1457.5 815.5 C1453.88850866 819.96420457 1450.11339306 824.23002114 1446.24609375 828.47265625 C1443.93812402 831.06962393 1441.74444137 833.73404013 1439.5625 836.4375 C1435.70291397 841.20996203 1431.62800009 845.73109109 1427.47265625 850.24609375 C1424.25290481 853.83207284 1421.24094824 857.56701492 1418.21484375 861.31640625 C1415.33519113 864.80550916 1412.29306124 868.12996921 1409.24609375 871.47265625 C1406.93812402 874.06962393 1404.74444137 876.73404013 1402.5625 879.4375 C1398.70291397 884.20996203 1394.62800009 888.73109109 1390.47265625 893.24609375 C1387.25290481 896.83207284 1384.24094824 900.56701492 1381.21484375 904.31640625 C1378.33519113 907.80550916 1375.29306124 911.12996921 1372.24609375 914.47265625 C1369.93812402 917.06962393 1367.74444137 919.73404013 1365.5625 922.4375 C1361.70291397 927.20996203 1357.62800009 931.73109109 1353.47265625 936.24609375 C1350.257269 939.82721225 1347.24929901 943.55707402 1344.2265625 947.30078125 C1341.28621509 950.86530767 1338.19636641 954.27929759 1335.0859375 957.6953125 C1332.32633903 960.74430706 1329.65928666 963.86340547 1327 967 C1328.32425136 970.69224762 1329.94234598 973.50878037 1332.3125 976.625 C1336.1056656 981.73065587 1339.73178586 986.93077401 1343.3125 992.1875 C1343.87090576 993.00661865 1344.42931152 993.8257373 1345.00463867 994.66967773 C1346.13017464 996.32125298 1347.25542099 997.97302564 1348.38037109 999.625 C1350.78582624 1003.15232404 1353.20447409 1006.67050774 1355.625 1010.1875 C1356.07077393 1010.83549561 1356.51654785 1011.48349121 1356.97583008 1012.15112305 C1357.86955525 1013.45024599 1358.76335365 1014.74931855 1359.65722656 1016.04833984 C1361.47879127 1018.69590134 1363.29938655 1021.34412868 1365.11987305 1023.99243164 C1366.04047056 1025.33155658 1366.9612064 1026.67058644 1367.88208008 1028.00952148 C1370.13883845 1031.29102628 1372.39378843 1034.57374079 1374.64453125 1037.859375 C1379.59587641 1045.0822887 1384.58961084 1052.27290116 1389.625 1059.4375 C1397.23987944 1070.28017275 1404.66897737 1081.24718216 1412.10644531 1092.21191406 C1419.63427319 1103.2959515 1427.2877952 1114.29192395 1434.94628906 1125.28588867 C1440.85073073 1133.76914498 1446.69207337 1142.29431539 1452.51806641 1150.83154297 C1454.83795075 1154.22614144 1457.16875003 1157.61320128 1459.5 1161 C1463.50967842 1166.82673554 1467.50752401 1172.66146494 1471.5 1178.5 C1479.87231347 1190.73975215 1488.27008781 1202.9594472 1496.75 1215.125 C1503.40726407 1224.67820558 1509.98661574 1234.2822011 1516.53515625 1243.91015625 C1520.90340799 1250.33236212 1525.30552714 1256.73103546 1529.71142578 1263.12744141 C1530.99573734 1264.9938055 1532.27755351 1266.86185805 1533.55859375 1268.73046875 C1538.96531963 1276.6136736 1544.41033661 1284.46933669 1549.875 1292.3125 C1556.43754028 1301.73379282 1562.9451205 1311.19086303 1569.41455078 1320.67626953 C1574.26805268 1327.78985608 1579.13425207 1334.89478649 1584 1342 C1584.45552246 1342.66531738 1584.91104492 1343.33063477 1585.38037109 1344.01611328 C1591.13204431 1352.41257663 1596.93014646 1360.77565228 1602.75 1369.125 C1609.40726407 1378.67820558 1615.98661574 1388.2822011 1622.53515625 1397.91015625 C1626.90340799 1404.33236212 1631.30552714 1410.73103546 1635.71142578 1417.12744141 C1636.99573734 1418.9938055 1638.27755351 1420.86185805 1639.55859375 1422.73046875 C1644.92290628 1430.55174902 1650.32625874 1438.34480383 1655.75 1446.125 C1661.6728414 1454.62311161 1667.53249961 1463.16156934 1673.35449219 1471.72900391 C1677.85967831 1478.34990473 1682.41771731 1484.93226472 1687 1491.5 C1693.576244 1500.92672244 1700.07097819 1510.40633678 1706.53515625 1519.91015625 C1710.89631778 1526.32193808 1715.29090487 1532.71051677 1719.68945312 1539.09667969 C1721.49934686 1541.72520642 1723.3072156 1544.35512299 1725.11499023 1546.98510742 C1726.03884291 1548.3291152 1726.96283396 1549.67302787 1727.88696289 1551.0168457 C1730.11801471 1554.26118823 1732.34777126 1557.50640196 1734.57421875 1560.75390625 C1739.9761896 1568.62898277 1745.41566614 1576.47706961 1750.875 1584.3125 C1757.4735365 1593.78456762 1764.01109607 1603.29643259 1770.51806641 1612.83154297 C1772.8379506 1616.22614123 1775.16869809 1619.61323725 1777.5 1623 C1780.34426001 1627.13195469 1783.18416402 1631.26674617 1786.01171875 1635.41015625 C1791.96696812 1644.13563356 1797.95946131 1652.83329677 1804 1661.5 C1810.52189519 1670.85814319 1816.98740709 1680.25286315 1823.41455078 1689.67626953 C1828.26805268 1696.78985608 1833.13425207 1703.89478649 1838 1711 C1838.45552246 1711.66531738 1838.91104492 1712.33063477 1839.38037109 1713.01611328 C1845.13204396 1721.41257612 1850.93009021 1729.77569193 1856.75 1738.125 C1862.67279873 1746.62314166 1868.53249926 1755.16156882 1874.35449219 1763.72900391 C1878.85967831 1770.34990473 1883.41771731 1776.93226472 1888 1783.5 C1894.576244 1792.92672244 1901.07097819 1802.40633678 1907.53515625 1811.91015625 C1911.89631778 1818.32193808 1916.29090487 1824.71051677 1920.68945312 1831.09667969 C1922.96155061 1834.39646956 1925.23057913 1837.69836901 1927.5 1841 C1928.41665286 1842.33334282 1929.33331951 1843.66667617 1930.25 1845 C1935.75000001 1853.00000001 1935.75000001 1853.00000001 1937.1237793 1854.99829102 C1938.04443216 1856.33737791 1938.96516841 1857.67640747 1939.88598633 1859.01538086 C1942.11733692 1862.26023002 1944.34743948 1865.50591802 1946.57421875 1868.75390625 C1951.93377221 1876.56706086 1957.3316296 1884.35250818 1962.75 1892.125 C1968.6728414 1900.62311161 1974.53249961 1909.16156934 1980.35449219 1917.72900391 C1984.85967831 1924.34990473 1989.41771731 1930.93226472 1994 1937.5 C2000.576244 1946.92672244 2007.07097819 1956.40633678 2013.53515625 1965.91015625 C2017.89631778 1972.32193808 2022.29090487 1978.71051677 2026.68945312 1985.09667969 C2028.96155061 1988.39646956 2031.23057913 1991.69836901 2033.5 1995 C2034.41665286 1996.33334282 2035.33331951 1997.66667617 2036.25 1999 C2041.75 2007 2041.75 2007 2043.1237793 2008.99829102 C2044.04443216 2010.33737791 2044.96516841 2011.67640747 2045.88598633 2013.01538086 C2048.11733692 2016.26023002 2050.34743948 2019.50591802 2052.57421875 2022.75390625 C2057.9761896 2030.62898277 2063.41566614 2038.47706961 2068.875 2046.3125 C2075.47051538 2055.78023085 2082.00521884 2065.28765979 2088.50927734 2074.81835938 C2090.87427983 2078.27948977 2093.24906678 2081.73386751 2095.625 2085.1875 C2096.07141846 2085.8364624 2096.51783691 2086.4854248 2096.9777832 2087.15405273 C2097.87087138 2088.45218945 2098.76401891 2089.75028533 2099.65722656 2091.04833984 C2101.93908519 2094.36491764 2104.21945755 2097.6825171 2106.5 2101 C2107.41665976 2102.33333808 2108.33332642 2103.66667142 2109.25 2105 C2158.74999999 2176.99999999 2158.74999999 2176.99999999 2160.1237793 2178.99829102 C2161.04443216 2180.33737791 2161.96516841 2181.67640747 2162.88598633 2183.01538086 C2165.11733692 2186.26023002 2167.34743948 2189.50591802 2169.57421875 2192.75390625 C2174.93377249 2200.56706127 2180.33168193 2208.35247139 2185.75 2216.125 C2192.40731212 2225.67817169 2198.98661614 2235.28220169 2205.53515625 2244.91015625 C2208.59400227 2249.40727318 2211.66668677 2253.89462998 2214.75 2258.375 C2215.18505859 2259.00728516 2215.62011719 2259.63957031 2216.06835938 2260.29101562 C2217.85738845 2262.89006986 2219.64742092 2265.4884311 2221.43798828 2268.08642578 C2237 2290.66811774 2237 2290.66811774 2237 2292 C2174.24720022 2292.29137195 2111.49432116 2292.5616631 2048.74102783 2292.71983337 C2047.81225774 2292.72218034 2046.88348765 2292.72452731 2045.926573 2292.7269454 C2025.74188554 2292.77782486 2005.5571909 2292.82491795 1985.37248556 2292.8681106 C1975.47390806 2292.88931532 1965.57533249 2292.91135673 1955.67675781 2292.93383789 C1954.69173074 2292.93606079 1953.70670367 2292.9382837 1952.6918273 2292.94057396 C1920.76423665 2293.01301691 1888.83715748 2293.14070837 1856.9098767 2293.29705275 C1824.10033644 2293.45742564 1791.29107922 2293.56205661 1758.48115362 2293.59655483 C1753.8469855 2293.60145346 1749.21281835 2293.60698929 1744.57865143 2293.61291313 C1743.66658119 2293.61405932 1742.75451095 2293.61520551 1741.81480221 2293.61638644 C1727.13283662 2293.63647584 1712.45174624 2293.71532112 1697.77013757 2293.81614458 C1683.00989649 2293.91625394 1668.25052299 2293.95445016 1653.48995432 2293.92952342 C1644.71962097 2293.91659236 1635.95246272 2293.95105277 1627.18270289 2294.05355823 C1621.32151791 2294.11738548 1615.46240767 2294.11923754 1609.60107849 2294.07114083 C1606.26007873 2294.04548803 1602.92992241 2294.05578217 1599.58878264 2294.1230141 C1580.28455756 2294.48888533 1580.28455756 2294.48888533 1574.78143173 2290.3188719 C1571.0088807 2286.33597823 1568.37842197 2281.89921624 1565.99164906 2276.98583131 C1564.69484638 2274.38891323 1563.08101668 2272.08621003 1561.37109375 2269.74609375 C1560.39195107 2268.31076689 1559.41404941 2266.8745925 1558.4375 2265.4375 C1557.34780585 2263.83974171 1556.25795948 2262.24208723 1555.16796875 2260.64453125 C1554.63864746 2259.86803223 1554.10932617 2259.0915332 1553.56396484 2258.29150391 C1551.13369213 2254.73069534 1548.69289045 2251.17715994 1546.25 2247.625 C1545.79874756 2246.96878662 1545.34749512 2246.31257324 1544.88256836 2245.63647461 C1541.36721683 2240.527617 1537.83690846 2235.42923979 1534.3046875 2230.33203125 C1530.32357595 2224.58134496 1526.36740431 2218.81345002 1522.40722656 2213.04833984 C1520.10570819 2209.69828101 1517.80279359 2206.34918233 1515.5 2203 C1514.58332642 2201.66667142 1513.66665976 2200.33333808 1512.75 2199 C1512.29625 2198.34 1511.8425 2197.68 1511.375 2197 C1496.25 2175 1496.25 2175 1494.8762207 2173.00170898 C1493.95556784 2171.66262209 1493.03483159 2170.32359253 1492.11401367 2168.98461914 C1489.88266308 2165.73976998 1487.65256052 2162.49408198 1485.42578125 2159.24609375 C1480.06622751 2151.43293873 1474.66831807 2143.64752861 1469.25 2135.875 C1462.59268788 2126.32182831 1456.01338386 2116.71779831 1449.46484375 2107.08984375 C1445.10368222 2100.67806192 1440.70909513 2094.28948323 1436.31054688 2087.90332031 C1434.50065314 2085.27479358 1432.6927844 2082.64487701 1430.88500977 2080.01489258 C1429.96115709 2078.6708848 1429.03716604 2077.32697213 1428.11303711 2075.9831543 C1425.88198529 2072.73881177 1423.65222874 2069.49359804 1421.42578125 2066.24609375 C1416.06622751 2058.43293873 1410.66831807 2050.64752861 1405.25 2042.875 C1398.59268788 2033.32182831 1392.01338386 2023.71779831 1385.46484375 2014.08984375 C1381.09659201 2007.66763788 1376.69447286 2001.26896454 1372.28857422 1994.87255859 C1371.00426266 1993.0061945 1369.72244649 1991.13814195 1368.44140625 1989.26953125 C1363.07709372 1981.44825098 1357.67374126 1973.65519617 1352.25 1965.875 C1346.3271586 1957.37688839 1340.46750039 1948.83843066 1334.64550781 1940.27099609 C1330.14032169 1933.65009527 1325.58228269 1927.06773528 1321 1920.5 C1314.423756 1911.07327756 1307.92902181 1901.59366322 1301.46484375 1892.08984375 C1297.09659201 1885.66763788 1292.69447286 1879.26896454 1288.28857422 1872.87255859 C1287.00426266 1871.0061945 1285.72244649 1869.13814195 1284.44140625 1867.26953125 C1279.03468037 1859.3863264 1273.58966339 1851.53066331 1268.125 1843.6875 C1260.49768007 1832.73759167 1252.95421861 1821.73235809 1245.43652344 1810.70703125 C1239.0442656 1801.33543233 1232.61342417 1791.99283454 1226.125 1782.6875 C1218.93148424 1772.36914446 1211.83217448 1761.98900902 1204.75976562 1751.58740234 C1196.55810406 1739.52841105 1188.28663952 1727.52077415 1179.94824219 1715.5559082 C1174.11319349 1707.17732277 1168.33848289 1698.75876425 1162.58544922 1690.32373047 C1157.73194732 1683.21014392 1152.86574793 1676.10521351 1148 1669 C1147.54447754 1668.33468262 1147.08895508 1667.66936523 1146.61962891 1666.98388672 C1140.8255409 1658.525505 1134.98573322 1650.09984025 1129.125 1641.6875 C1122.52651045 1632.21539937 1115.98890425 1622.70356788 1109.48193359 1613.16845703 C1107.16204925 1609.77385856 1104.83124997 1606.38679872 1102.5 1603 C1098.49032158 1597.17326446 1094.49247599 1591.33853506 1090.5 1585.5 C1082.12768715 1573.26024876 1073.72999412 1561.04049496 1065.25 1548.875 C1059.32720127 1540.37685834 1053.46750074 1531.83843118 1047.64550781 1523.27099609 C1043.14032169 1516.65009527 1038.58228269 1510.06773528 1034 1503.5 C1026.81365115 1493.19872225 1019.72931183 1482.83052974 1012.66503906 1472.4453125 C1006.62918877 1463.58093177 1000.53281271 1454.75947759 994.39794922 1445.96337891 C987.14120866 1435.55732154 979.95922203 1425.10512655 972.84716797 1414.59985352 C968.6201789 1408.36013492 964.3419403 1402.16032356 960 1396 C954.96591903 1399.74329097 951.32817853 1404.14962888 947.421875 1409.0390625 C945.03684093 1411.95495899 942.55411384 1414.73172134 940 1417.5 C935.88621091 1421.9698512 932.02912703 1426.59044893 928.21484375 1431.31640625 C926.04367173 1433.94708557 923.79758643 1436.47942424 921.5 1439 C918.38541332 1442.41739372 915.4081338 1445.9052235 912.5 1449.5 C908.88850866 1453.96420457 905.11339306 1458.23002114 901.24609375 1462.47265625 C898.93812402 1465.06962393 896.74444137 1467.73404013 894.5625 1470.4375 C890.70291397 1475.20996203 886.62800009 1479.73109109 882.47265625 1484.24609375 C879.25290481 1487.83207284 876.24094824 1491.56701492 873.21484375 1495.31640625 C871.04367173 1497.94708557 868.79758643 1500.47942424 866.5 1503 C863.38541332 1506.41739372 860.4081338 1509.9052235 857.5 1513.5 C853.88850866 1517.96420457 850.11339306 1522.23002114 846.24609375 1526.47265625 C843.93812402 1529.06962393 841.74444137 1531.73404013 839.5625 1534.4375 C835.70291397 1539.20996203 831.62800009 1543.73109109 827.47265625 1548.24609375 C824.25290481 1551.83207284 821.24094824 1555.56701492 818.21484375 1559.31640625 C816.04367173 1561.94708557 813.79758643 1564.47942424 811.5 1567 C808.38541332 1570.41739372 805.4081338 1573.9052235 802.5 1577.5 C798.88850866 1581.96420457 795.11339306 1586.23002114 791.24609375 1590.47265625 C788.93812402 1593.06962393 786.74444137 1595.73404013 784.5625 1598.4375 C780.70291397 1603.20996203 776.62800009 1607.73109109 772.47265625 1612.24609375 C769.25290481 1615.83207284 766.24094824 1619.56701492 763.21484375 1623.31640625 C761.04367173 1625.94708557 758.79758643 1628.47942424 756.5 1631 C753.38541332 1634.41739372 750.4081338 1637.9052235 747.5 1641.5 C743.88850866 1645.96420457 740.11339306 1650.23002114 736.24609375 1654.47265625 C733.93812402 1657.06962393 731.74444137 1659.73404013 729.5625 1662.4375 C725.70291397 1667.20996203 721.62800009 1671.73109109 717.47265625 1676.24609375 C714.25290481 1679.83207284 711.24094824 1683.56701492 708.21484375 1687.31640625 C705.33519113 1690.80550916 702.29306124 1694.12996921 699.24609375 1697.47265625 C696.93812402 1700.06962393 694.74444137 1702.73404013 692.5625 1705.4375 C688.70291397 1710.20996203 684.62800009 1714.73109109 680.47265625 1719.24609375 C677.25290481 1722.83207284 674.24094824 1726.56701492 671.21484375 1730.31640625 C669.04367173 1732.94708557 666.79758643 1735.47942424 664.5 1738 C661.38541332 1741.41739372 658.4081338 1744.9052235 655.5 1748.5 C651.88850866 1752.96420457 648.11339306 1757.23002114 644.24609375 1761.47265625 C641.93812402 1764.06962393 639.74444137 1766.73404013 637.5625 1769.4375 C633.70291397 1774.20996203 629.62800009 1778.73109109 625.47265625 1783.24609375 C622.25290481 1786.83207284 619.24094824 1790.56701492 616.21484375 1794.31640625 C614.04367173 1796.94708557 611.79758643 1799.47942424 609.5 1802 C606.38541332 1805.41739372 603.4081338 1808.9052235 600.5 1812.5 C596.88967558 1816.96276213 593.11572071 1821.22719533 589.25 1825.46875 C586.92137947 1828.0884481 584.70437053 1830.7751531 582.5 1833.5 C578.88850866 1837.96420457 575.11339306 1842.23002114 571.24609375 1846.47265625 C568.93812402 1849.06962393 566.74444137 1851.73404013 564.5625 1854.4375 C560.70291397 1859.20996203 556.62800009 1863.73109109 552.47265625 1868.24609375 C549.25290481 1871.83207284 546.24094824 1875.56701492 543.21484375 1879.31640625 C540.33519113 1882.80550916 537.29306124 1886.12996921 534.24609375 1889.47265625 C531.93812402 1892.06962393 529.74444137 1894.73404013 527.5625 1897.4375 C523.70291397 1902.20996203 519.62800009 1906.73109109 515.47265625 1911.24609375 C512.25290481 1914.83207284 509.24094824 1918.56701492 506.21484375 1922.31640625 C503.33519113 1925.80550916 500.29306124 1929.12996921 497.24609375 1932.47265625 C494.93812402 1935.06962393 492.74444137 1937.73404013 490.5625 1940.4375 C486.70291397 1945.20996203 482.62800009 1949.73109109 478.47265625 1954.24609375 C475.25290481 1957.83207284 472.24094824 1961.56701492 469.21484375 1965.31640625 C467.04367173 1967.94708557 464.79758643 1970.47942424 462.5 1973 C459.38541332 1976.41739372 456.4081338 1979.9052235 453.5 1983.5 C449.88850866 1987.96420457 446.11339306 1992.23002114 442.24609375 1996.47265625 C439.93812402 1999.06962393 437.74444137 2001.73404013 435.5625 2004.4375 C431.70291397 2009.20996203 427.62800009 2013.73109109 423.47265625 2018.24609375 C420.25290481 2021.83207284 417.24094824 2025.56701492 414.21484375 2029.31640625 C412.04367173 2031.94708557 409.79758643 2034.47942424 407.5 2037 C404.38541332 2040.41739372 401.4081338 2043.9052235 398.5 2047.5 C394.88850866 2051.96420457 391.11339306 2056.23002114 387.24609375 2060.47265625 C384.93812402 2063.06962393 382.74444137 2065.73404013 380.5625 2068.4375 C376.70291397 2073.20996203 372.62800009 2077.73109109 368.47265625 2082.24609375 C365.25290481 2085.83207284 362.24094824 2089.56701492 359.21484375 2093.31640625 C357.04367173 2095.94708557 354.79758643 2098.47942424 352.5 2101 C349.38541332 2104.41739372 346.4081338 2107.9052235 343.5 2111.5 C339.88850866 2115.96420457 336.11339306 2120.23002114 332.24609375 2124.47265625 C329.93812402 2127.06962393 327.74444137 2129.73404013 325.5625 2132.4375 C321.70291397 2137.20996203 317.62800009 2141.73109109 313.47265625 2146.24609375 C310.25290481 2149.83207284 307.24094824 2153.56701492 304.21484375 2157.31640625 C301.33519113 2160.80550916 298.29306124 2164.12996921 295.24609375 2167.47265625 C292.93812402 2170.06962393 290.74444137 2172.73404013 288.5625 2175.4375 C284.70291397 2180.20996203 280.62800009 2184.73109109 276.47265625 2189.24609375 C273.25290481 2192.83207284 270.24094824 2196.56701492 267.21484375 2200.31640625 C265.04367173 2202.94708557 262.79758643 2205.47942424 260.5 2208 C257.38541332 2211.41739372 254.4081338 2214.9052235 251.5 2218.5 C247.88967558 2222.96276213 244.11572071 2227.22719533 240.25 2231.46875 C237.92137947 2234.0884481 235.70437053 2236.7751531 233.5 2239.5 C229.88850866 2243.96420457 226.11339306 2248.23002114 222.24609375 2252.47265625 C219.93812402 2255.06962393 217.74444137 2257.73404013 215.5625 2260.4375 C211.70928851 2265.20207978 207.64251948 2269.71676624 203.4921875 2274.22265625 C200.19058569 2277.90202754 197.09123204 2281.72703588 194.0078125 2285.58984375 C193.34523438 2286.38519531 192.68265625 2287.18054687 192 2288 C191.18592115 2289.04968271 191.18592115 2289.04968271 190.35539627 2290.12057114 C187.11858687 2292.7033013 184.27182774 2292.54452447 180.30584717 2292.48101807 C179.52655452 2292.48443577 178.74726187 2292.48785347 177.9443543 2292.49137473 C175.33069379 2292.4979682 172.71805821 2292.47595408 170.10449219 2292.45410156 C168.23200505 2292.4529734 166.35951614 2292.45360634 164.48703003 2292.45587158 C159.40049772 2292.45702087 154.31434148 2292.43347673 149.22789669 2292.40557575 C143.91344539 2292.38059791 138.5989858 2292.37822295 133.28448486 2292.37347412 C123.21931687 2292.36103371 113.15432233 2292.32819763 103.08923078 2292.28807616 C91.63109754 2292.24339164 80.17295609 2292.22137975 68.71475744 2292.20129442 C45.14307541 2292.15946599 21.57154741 2292.08909317 -2 2292 C-0.28877436 2288.36598423 1.79933887 2285.87362897 4.5625 2282.9375 C8.03391819 2279.20404044 11.3591628 2275.40783343 14.5625 2271.4375 C17.44848793 2267.86171531 20.40444804 2264.39598682 23.5 2261 C26.61458668 2257.58260628 29.5918662 2254.0947765 32.5 2250.5 C36.11149134 2246.03579543 39.88660694 2241.76997886 43.75390625 2237.52734375 C46.06187598 2234.93037607 48.25555863 2232.26595987 50.4375 2229.5625 C54.29708603 2224.79003797 58.37199991 2220.26890891 62.52734375 2215.75390625 C65.74709519 2212.16792716 68.75905176 2208.43298508 71.78515625 2204.68359375 C73.95632827 2202.05291443 76.20241357 2199.52057576 78.5 2197 C81.61458668 2193.58260628 84.5918662 2190.0947765 87.5 2186.5 C91.11032442 2182.03723787 94.88427929 2177.77280467 98.75 2173.53125 C101.07862053 2170.9115519 103.29562947 2168.2248469 105.5 2165.5 C109.11149134 2161.03579543 112.88660694 2156.76997886 116.75390625 2152.52734375 C119.06187598 2149.93037607 121.25555863 2147.26595987 123.4375 2144.5625 C127.29708603 2139.79003797 131.37199991 2135.26890891 135.52734375 2130.75390625 C138.74709519 2127.16792716 141.75905176 2123.43298508 144.78515625 2119.68359375 C146.95632827 2117.05291443 149.20241357 2114.52057576 151.5 2112 C154.61458668 2108.58260628 157.5918662 2105.0947765 160.5 2101.5 C164.11149134 2097.03579543 167.88660694 2092.76997886 171.75390625 2088.52734375 C174.06187598 2085.93037607 176.25555863 2083.26595987 178.4375 2080.5625 C182.29708603 2075.79003797 186.37199991 2071.26890891 190.52734375 2066.75390625 C193.74709519 2063.16792716 196.75905176 2059.43298508 199.78515625 2055.68359375 C201.95632827 2053.05291443 204.20241357 2050.52057576 206.5 2048 C209.61458668 2044.58260628 212.5918662 2041.0947765 215.5 2037.5 C219.11032442 2033.03723787 222.88427929 2028.77280467 226.75 2024.53125 C229.07862053 2021.9115519 231.29562947 2019.2248469 233.5 2016.5 C237.11149134 2012.03579543 240.88660694 2007.76997886 244.75390625 2003.52734375 C247.06187598 2000.93037607 249.25555863 1998.26595987 251.4375 1995.5625 C255.29708603 1990.79003797 259.37199991 1986.26890891 263.52734375 1981.75390625 C266.74709519 1978.16792716 269.75905176 1974.43298508 272.78515625 1970.68359375 C274.95632827 1968.05291443 277.20241357 1965.52057576 279.5 1963 C282.61458668 1959.58260628 285.5918662 1956.0947765 288.5 1952.5 C292.11149134 1948.03579543 295.88660694 1943.76997886 299.75390625 1939.52734375 C302.06187598 1936.93037607 304.25555863 1934.26595987 306.4375 1931.5625 C310.29708603 1926.79003797 314.37199991 1922.26890891 318.52734375 1917.75390625 C321.74709519 1914.16792716 324.75905176 1910.43298508 327.78515625 1906.68359375 C329.95632827 1904.05291443 332.20241357 1901.52057576 334.5 1899 C337.61458668 1895.58260628 340.5918662 1892.0947765 343.5 1888.5 C347.11149134 1884.03579543 350.88660694 1879.76997886 354.75390625 1875.52734375 C357.06187598 1872.93037607 359.25555863 1870.26595987 361.4375 1867.5625 C365.29708603 1862.79003797 369.37199991 1858.26890891 373.52734375 1853.75390625 C376.74709519 1850.16792716 379.75905176 1846.43298508 382.78515625 1842.68359375 C384.95632827 1840.05291443 387.20241357 1837.52057576 389.5 1835 C392.61458668 1831.58260628 395.5918662 1828.0947765 398.5 1824.5 C402.11149134 1820.03579543 405.88660694 1815.76997886 409.75390625 1811.52734375 C412.06187598 1808.93037607 414.25555863 1806.26595987 416.4375 1803.5625 C420.29708603 1798.79003797 424.37199991 1794.26890891 428.52734375 1789.75390625 C431.74709519 1786.16792716 434.75905176 1782.43298508 437.78515625 1778.68359375 C439.95632827 1776.05291443 442.20241357 1773.52057576 444.5 1771 C447.61458668 1767.58260628 450.5918662 1764.0947765 453.5 1760.5 C457.11149134 1756.03579543 460.88660694 1751.76997886 464.75390625 1747.52734375 C467.06187598 1744.93037607 469.25555863 1742.26595987 471.4375 1739.5625 C475.29708603 1734.79003797 479.37199991 1730.26890891 483.52734375 1725.75390625 C486.74709519 1722.16792716 489.75905176 1718.43298508 492.78515625 1714.68359375 C494.95632827 1712.05291443 497.20241357 1709.52057576 499.5 1707 C502.61458668 1703.58260628 505.5918662 1700.0947765 508.5 1696.5 C512.11032442 1692.03723787 515.88427929 1687.77280467 519.75 1683.53125 C522.07862053 1680.9115519 524.29562947 1678.2248469 526.5 1675.5 C530.11149134 1671.03579543 533.88660694 1666.76997886 537.75390625 1662.52734375 C540.06187598 1659.93037607 542.25555863 1657.26595987 544.4375 1654.5625 C548.29708603 1649.79003797 552.37199991 1645.26890891 556.52734375 1640.75390625 C559.74709519 1637.16792716 562.75905176 1633.43298508 565.78515625 1629.68359375 C567.95632827 1627.05291443 570.20241357 1624.52057576 572.5 1622 C575.61458668 1618.58260628 578.5918662 1615.0947765 581.5 1611.5 C585.11032442 1607.03723787 588.88427929 1602.77280467 592.75 1598.53125 C595.07862053 1595.9115519 597.29562947 1593.2248469 599.5 1590.5 C603.11149134 1586.03579543 606.88660694 1581.76997886 610.75390625 1577.52734375 C613.06187598 1574.93037607 615.25555863 1572.26595987 617.4375 1569.5625 C621.29708603 1564.79003797 625.37199991 1560.26890891 629.52734375 1555.75390625 C632.74709519 1552.16792716 635.75905176 1548.43298508 638.78515625 1544.68359375 C641.66480887 1541.19449084 644.70693876 1537.87003079 647.75390625 1534.52734375 C650.06187598 1531.93037607 652.25555863 1529.26595987 654.4375 1526.5625 C658.29708603 1521.79003797 662.37199991 1517.26890891 666.52734375 1512.75390625 C669.74709519 1509.16792716 672.75905176 1505.43298508 675.78515625 1501.68359375 C677.95632827 1499.05291443 680.20241357 1496.52057576 682.5 1494 C685.61458668 1490.58260628 688.5918662 1487.0947765 691.5 1483.5 C695.11032442 1479.03723787 698.88427929 1474.77280467 702.75 1470.53125 C705.07862053 1467.9115519 707.29562947 1465.2248469 709.5 1462.5 C713.11149134 1458.03579543 716.88660694 1453.76997886 720.75390625 1449.52734375 C723.06187598 1446.93037607 725.25555863 1444.26595987 727.4375 1441.5625 C731.29708603 1436.79003797 735.37199991 1432.26890891 739.52734375 1427.75390625 C742.74709519 1424.16792716 745.75905176 1420.43298508 748.78515625 1416.68359375 C750.95632827 1414.05291443 753.20241357 1411.52057576 755.5 1409 C758.61458668 1405.58260628 761.5918662 1402.0947765 764.5 1398.5 C768.11149134 1394.03579543 771.88660694 1389.76997886 775.75390625 1385.52734375 C778.06187598 1382.93037607 780.25555863 1380.26595987 782.4375 1377.5625 C786.29708603 1372.79003797 790.37199991 1368.26890891 794.52734375 1363.75390625 C797.74709519 1360.16792716 800.75905176 1356.43298508 803.78515625 1352.68359375 C805.95632827 1350.05291443 808.20241357 1347.52057576 810.5 1345 C813.61458668 1341.58260628 816.5918662 1338.0947765 819.5 1334.5 C823.11149134 1330.03579543 826.88660694 1325.76997886 830.75390625 1321.52734375 C833.06187598 1318.93037607 835.25555863 1316.26595987 837.4375 1313.5625 C841.29708603 1308.79003797 845.37199991 1304.26890891 849.52734375 1299.75390625 C852.73910112 1296.17683051 855.74426378 1292.45193851 858.76171875 1288.7109375 C861.7450804 1285.0975815 864.88402912 1281.64049162 868.0546875 1278.19140625 C868.69664062 1277.46824219 869.33859375 1276.74507812 870 1276 C870.62132812 1275.34902344 871.24265625 1274.69804687 871.8828125 1274.02734375 C873.29727881 1272.00592914 873.29727881 1272.00592914 872.3828125 1269.5546875 C870.98635019 1266.97478255 869.52141221 1264.55401174 867.875 1262.125 C867.16214844 1261.073125 866.44929688 1260.02125 865.71484375 1258.9375 C861.62188841 1252.98296597 857.48433094 1247.05913419 853.3503418 1241.13305664 C848.58925616 1234.30317575 843.87107044 1227.44574681 839.1875 1220.5625 C838.56214355 1219.643479 837.93678711 1218.72445801 837.29248047 1217.77758789 C836.08326736 1216.00020764 834.87411775 1214.22278419 833.66503906 1212.4453125 C826.88113273 1202.48232044 820.01455893 1192.57763888 813.125 1182.6875 C806.56255263 1173.26614174 800.05488018 1163.80913797 793.58544922 1154.32373047 C790.8521222 1150.31760072 788.11355098 1146.31505976 785.375 1142.3125 C784.56470337 1141.12805298 784.56470337 1141.12805298 783.73803711 1139.91967773 C778.95018882 1132.92305669 774.14869796 1125.9358726 769.34277344 1118.95166016 C767.52137503 1116.30434037 765.70094917 1113.65635259 763.88061523 1111.00830078 C762.95836256 1109.66675339 762.03599883 1108.32528233 761.11352539 1106.98388672 C758.88232419 1103.73929087 756.65239463 1100.49384001 754.42578125 1097.24609375 C749.06622779 1089.43293914 743.6683704 1081.64749182 738.25 1073.875 C732.3271586 1065.37688839 726.46750039 1056.83843066 720.64550781 1048.27099609 C716.14032169 1041.65009527 711.58228269 1035.06773528 707 1028.5 C699.81365115 1018.19872225 692.72931183 1007.83052974 685.66503906 997.4453125 C683.30496271 993.97925315 680.9369513 990.51872521 678.5625 987.0625 C678.13308105 986.43738525 677.70366211 985.81227051 677.26123047 985.16821289 C674.63255041 981.3497748 671.98542597 977.54467141 669.328125 973.74609375 C661.60455134 962.6981371 653.99106857 951.59234797 646.5793457 940.33203125 C642.82809477 934.65371727 638.93728749 929.11175272 634.91064453 923.62548828 C632.08601071 919.74405305 629.38297656 915.7842213 626.6875 911.8125 C625.55875364 910.15614103 624.42984477 908.49989279 623.30078125 906.84375 C622.46861084 905.62171875 622.46861084 905.62171875 621.61962891 904.375 C619.21417376 900.84767596 616.79552591 897.32949226 614.375 893.8125 C613.92922607 893.16450439 613.48345215 892.51650879 613.02416992 891.84887695 C612.13044475 890.54975401 611.23664635 889.25068145 610.34277344 887.95166016 C608.06091481 884.63508236 605.78054245 881.3174829 603.5 878 C602.58334024 876.66666192 601.66667358 875.33332858 600.75 874 C595.25 866 595.25 866 593.87573242 864.00097656 C592.95673481 862.66431207 592.03762629 861.32772382 591.1184082 859.99121094 C588.86150071 856.70945265 586.60637737 853.42650124 584.35546875 850.140625 C580.51528946 844.53897985 576.6705559 838.9419597 572.7578125 833.390625 C565.57079941 823.19159725 558.54187375 812.90635658 551.6809082 802.484375 C547.87361611 796.7220932 543.93063619 791.09253696 539.84375 785.52514648 C537.39089599 782.16578883 535.02971741 778.7494791 532.6875 775.3125 C531.74093382 773.92965437 530.79431783 772.54684283 529.84765625 771.1640625 C529.37473145 770.4721582 528.90180664 769.78025391 528.41455078 769.06738281 C526.60453875 766.42202868 524.78746203 763.781576 522.9699707 761.14135742 C518.46853253 754.60205633 513.98138236 748.05305802 509.5 741.5 C501.12764351 729.26027813 492.72999451 717.04049553 484.25 704.875 C478.32627811 696.37553378 472.46452413 687.8365302 466.64331055 679.26660156 C462.16584929 672.68427071 457.62486127 666.14868795 453.0625 659.625 C446.76447384 650.6159234 440.6219585 641.51227668 434.57836914 632.33056641 C430.82052268 626.64224165 426.92232777 621.09072915 422.88867188 615.59472656 C420.17632049 611.86839894 417.58433533 608.0656976 415 604.25 C410.11373362 597.06762915 405.16614379 589.93108717 400.1875 582.8125 C393.84886204 573.74063153 387.66351437 564.57543071 381.57885742 555.33129883 C377.8248908 549.64886057 373.93129787 544.10265173 369.90185547 538.61230469 C367.12371358 534.79637167 364.4634526 530.90487909 361.8125 527 C360.67969775 525.33853468 359.54688496 523.67707654 358.4140625 522.015625 C357.27603067 520.34375748 356.13800965 518.67188261 355 517 C348.09041625 506.86144156 341.1426132 496.7516565 334.125 486.6875 C327.50831523 477.19748805 320.97120287 467.6557305 314.46484375 458.08984375 C310.09659201 451.66763788 305.69447286 445.26896454 301.28857422 438.87255859 C300.00426266 437.0061945 298.72244649 435.13814195 297.44140625 433.26953125 C292.03468057 425.38632668 286.5897026 417.53063579 281.125 409.6875 C274.52948462 400.21976915 267.99478116 390.71234021 261.49072266 381.18164062 C259.12572012 377.72051016 256.75091491 374.26614515 254.375 370.8125 C253.70319702 369.83579346 253.70319702 369.83579346 253.01782227 368.83935547 C251.67873054 366.89277809 250.33940887 364.94635916 249 363 C247.20804835 360.39602927 245.41635703 357.79187983 243.625 355.1875 C243.17261963 354.52991699 242.72023926 353.87233398 242.25415039 353.19482422 C239.8237311 349.65990159 237.39857258 346.12148507 234.98046875 342.578125 C229.06993354 333.91867503 223.1221698 325.28722884 217.125 316.6875 C211.24283432 308.25215228 205.42498062 299.77588949 199.64501953 291.27026367 C195.13998187 284.64961689 190.58211476 278.0674946 186 271.5 C178.81365115 261.19872225 171.72931183 250.83052974 164.66503906 240.4453125 C158.62935414 231.58117465 152.53318038 222.75993614 146.3984375 213.96411133 C139.15364532 203.57507235 131.98837838 193.13610145 124.87792969 182.65478516 C120.64762366 176.4194596 116.39473918 170.20243251 112.09375 164.015625 C109.59303835 160.41385375 107.10801956 156.801481 104.625 153.1875 C104.16303223 152.51517334 103.70106445 151.84284668 103.22509766 151.15014648 C102.28574983 149.78291708 101.34645981 148.41564796 100.40722656 147.04833984 C98.10570819 143.69828101 95.80279359 140.34918233 93.5 137 C92.58332642 135.66667142 91.66665976 134.33333808 90.75 133 C90.29625 132.34 89.8425 131.68 89.375 131 C63.25 93 63.25 93 61.8762207 91.00170898 C60.95556784 89.66262209 60.03483159 88.32359253 59.11401367 86.98461914 C56.88266308 83.73976998 54.65256052 80.49408198 52.42578125 77.24609375 C47.02381021 69.37101695 41.58429469 61.52295787 36.125 53.6875 C30.10346882 45.04288891 24.12252282 36.37217345 18.1875 27.66796875 C15.9261109 24.3515003 13.65364242 21.04291878 11.375 17.73828125 C10.77905029 16.87235352 10.18310059 16.00642578 9.5690918 15.11425781 C8.42668084 13.45470545 7.28241134 11.79643042 6.13598633 10.13964844 C5.36677856 9.02058105 5.36677856 9.02058105 4.58203125 7.87890625 C4.13061768 7.2247876 3.6792041 6.57066895 3.21411133 5.89672852 C1.99094464 3.98585339 0.9994108 2.03474647 0 0 Z " fill="#000000" transform="translate(883,854)"/>
<path d="M0 0 C37.6996892 -0.25178671 75.39925173 -0.44561029 113.09961164 -0.56171862 C117.55062137 -0.57547637 122.00162945 -0.58971392 126.45263672 -0.60424805 C127.33875082 -0.60713346 128.22486493 -0.61001888 129.13783097 -0.61299173 C143.48513944 -0.66085443 157.83196299 -0.74758298 172.17898381 -0.84868076 C186.90079373 -0.95155419 201.62234974 -1.01264771 216.34450436 -1.03497344 C225.42893845 -1.05006615 234.51200203 -1.09772685 243.5960142 -1.18708114 C249.82563397 -1.24523626 256.05454548 -1.26279986 262.28441697 -1.24851515 C265.87917087 -1.24146935 269.47153101 -1.25224747 273.06585884 -1.31126022 C276.96568697 -1.3748202 280.86240611 -1.35285546 284.76269531 -1.32279968 C285.89500422 -1.35484094 287.02731314 -1.38688219 288.19393444 -1.4198944 C293.05505982 -1.31854607 295.86052417 -1.11847927 299.41779327 2.37324178 C301.47358278 5.17004245 303.25714817 8.00054125 305 11 C306.06654648 12.56484665 307.14362569 14.12265467 308.23828125 15.66796875 C309.26463218 17.17338185 310.28934861 18.6799105 311.3125 20.1875 C312.44124636 21.84385897 313.57015523 23.50010721 314.69921875 25.15625 C315.25399902 25.9709375 315.8087793 26.785625 316.38037109 27.625 C318.78582624 31.15232404 321.20447409 34.67050774 323.625 38.1875 C324.07077393 38.83549561 324.51654785 39.48349121 324.97583008 40.15112305 C325.86955525 41.45024599 326.76335365 42.74931855 327.65722656 44.04833984 C329.93908519 47.36491764 332.21945755 50.6825171 334.5 54 C335.41665976 55.33333808 336.33332642 56.66667142 337.25 58 C342.75 65.99999999 342.75 65.99999999 344.12548828 68.00073242 C345.0404997 69.33164335 345.95553869 70.66253534 346.87060547 71.9934082 C349.18782581 75.36364804 351.50453932 78.73423433 353.8203125 82.10546875 C358.03735882 88.24361395 362.25824749 94.37889451 366.5 100.5 C371.21558624 107.30487622 375.90512485 114.12751934 380.59277344 120.95166016 C382.89429181 124.30171899 385.19720641 127.65081767 387.5 131 C388.41667358 132.33332858 389.33334024 133.66666192 390.25 135 C390.70375 135.66 391.1575 136.32 391.625 137 C406.75 159 406.75 159 408.12426758 160.99902344 C409.04326519 162.33568793 409.96237371 163.67227618 410.8815918 165.00878906 C413.13849929 168.29054735 415.39362263 171.57349876 417.64453125 174.859375 C421.48471054 180.46102015 425.3294441 186.0580403 429.2421875 191.609375 C436.42920059 201.80840275 443.45812625 212.09364342 450.3190918 222.515625 C454.08252786 228.21153133 457.98265347 233.77118304 462.02246094 239.27416992 C465.26170173 243.73912344 468.34651629 248.30674373 471.4375 252.875 C472.75356188 254.81273393 474.06996628 256.75023528 475.38671875 258.6875 C476.0111084 259.60660156 476.63549805 260.52570313 477.27880859 261.47265625 C480.11306913 265.63439598 482.98302321 269.7707811 485.85546875 273.90625 C488.26907439 277.38817289 490.66594587 280.88133339 493.0625 284.375 C497.59480595 290.97949433 502.16901922 297.55420035 506.75 304.125 C513.98400585 314.50661361 521.12562866 324.94893076 528.24023438 335.41259766 C536.44189594 347.47158895 544.71336048 359.47922585 553.05175781 371.4440918 C558.88680651 379.82267723 564.66151711 388.24123575 570.41455078 396.67626953 C575.26805268 403.78985608 580.13425207 410.89478649 585 418 C585.45552246 418.66531738 585.91104492 419.33063477 586.38037109 420.01611328 C592.13204431 428.41257663 597.93014646 436.77565228 603.75 445.125 C610.40726407 454.67820558 616.98661574 464.2822011 623.53515625 473.91015625 C627.89631778 480.32193808 632.29090487 486.71051677 636.68945312 493.09667969 C638.49934686 495.72520642 640.3072156 498.35512299 642.11499023 500.98510742 C643.03884291 502.3291152 643.96283396 503.67302787 644.88696289 505.0168457 C647.11801471 508.26118823 649.34777126 511.50640196 651.57421875 514.75390625 C656.9761896 522.62898277 662.41566614 530.47706961 667.875 538.3125 C674.47051538 547.78023085 681.00521884 557.28765979 687.50927734 566.81835938 C689.87427983 570.27948977 692.24906678 573.73386751 694.625 577.1875 C695.07141846 577.8364624 695.51783691 578.4854248 695.9777832 579.15405273 C696.87087138 580.45218945 697.76401891 581.75028533 698.65722656 583.04833984 C700.93908519 586.36491764 703.21945755 589.6825171 705.5 593 C706.41665976 594.33333808 707.33332642 595.66667142 708.25 597 C746.75 653 746.75 653 748.1237793 654.99829102 C749.04443216 656.33737791 749.96516841 657.67640747 750.88598633 659.01538086 C753.11733692 662.26023002 755.34743948 665.50591802 757.57421875 668.75390625 C762.93377249 676.56706127 768.33168193 684.35247139 773.75 692.125 C780.40731212 701.67817169 786.98661614 711.28220169 793.53515625 720.91015625 C797.89631778 727.32193808 802.29090487 733.71051677 806.68945312 740.09667969 C808.49951325 742.72544808 810.30755116 745.35560436 812.11547852 747.98583984 C813.0376761 749.32742511 813.9600391 750.66889669 814.88256836 752.01025391 C817.13917763 755.2915052 819.39395423 758.57398283 821.64453125 761.859375 C825.48471054 767.46102015 829.3294441 773.0580403 833.2421875 778.609375 C840.37723188 788.73432326 847.33365731 798.9577163 854.17626953 809.28271484 C858.51106464 815.80854038 862.94205597 822.24922945 867.49047852 828.62744141 C873.54587864 837.13381249 879.37970566 845.79170477 885.24853516 854.42724609 C889.04818455 860.0086101 892.88131884 865.5669597 896.71142578 871.12744141 C897.99573734 872.9938055 899.27755351 874.86185805 900.55859375 876.73046875 C905.92290588 884.55174844 911.32617904 892.34485975 916.75 900.125 C922.13050669 907.84346876 927.46321428 915.59205527 932.75 923.375 C937.10930665 929.79205289 941.50607898 936.17645434 946 942.5 C951.14626332 949.74147819 956.15634018 957.07046737 961.14794922 964.41918945 C965.76325267 971.20615906 970.42980048 977.95559069 975.125 984.6875 C981.60643314 993.9823668 988.0296931 1003.31486243 994.41455078 1012.67626953 C999.26805268 1019.78985608 1004.13425207 1026.89478649 1009 1034 C1009.45552246 1034.66531738 1009.91104492 1035.33063477 1010.38037109 1036.01611328 C1016.13204431 1044.41257663 1021.93014646 1052.77565228 1027.75 1061.125 C1034.40457916 1070.67435272 1040.98127575 1080.27448045 1047.52734375 1089.8984375 C1054.52911 1100.19232303 1061.60440897 1110.43536597 1068.6953125 1120.66796875 C1071.26322643 1124.3773015 1073.81967771 1128.0944859 1076.375 1131.8125 C1077.07266479 1132.82751587 1077.07266479 1132.82751587 1077.78442383 1133.86303711 C1080.05194023 1137.16277237 1082.31805833 1140.46345754 1084.58203125 1143.765625 C1089.93920727 1151.57471592 1095.33436732 1159.35632357 1100.75 1167.125 C1107.40731212 1176.67817169 1113.98661614 1186.28220169 1120.53515625 1195.91015625 C1124.89631778 1202.32193808 1129.29090487 1208.71051677 1133.68945312 1215.09667969 C1135.96155061 1218.39646956 1138.23057913 1221.69836901 1140.5 1225 C1141.41665286 1226.33334282 1142.33331951 1227.66667617 1143.25 1229 C1170.75 1269.00000001 1170.75 1269.00000001 1172.1237793 1270.99829102 C1173.04443216 1272.33737791 1173.96516841 1273.67640747 1174.88598633 1275.01538086 C1177.11733692 1278.26023002 1179.34743948 1281.50591802 1181.57421875 1284.75390625 C1186.93377249 1292.56706127 1192.33168193 1300.35247139 1197.75 1308.125 C1204.40731212 1317.67817169 1210.98661614 1327.28220169 1217.53515625 1336.91015625 C1221.90043942 1343.32799773 1226.29965812 1349.72225058 1230.70263672 1356.11425781 C1232.01369958 1358.0199126 1233.32171649 1359.92762422 1234.62890625 1361.8359375 C1239.58507551 1369.06693582 1244.58420896 1376.2652151 1249.625 1383.4375 C1256.52793703 1393.26645237 1263.27796406 1403.19667639 1270.01953125 1413.13671875 C1274.55716813 1419.82675562 1279.13321519 1426.4897912 1283.72167969 1433.14501953 C1285.52010502 1435.75472841 1287.31537829 1438.36659937 1289.1105957 1440.97851562 C1290.4965767 1442.99501934 1291.88305273 1445.01118209 1293.26953125 1447.02734375 C1295.03950133 1449.60167457 1296.80767685 1452.17722191 1298.57421875 1454.75390625 C1303.93377249 1462.56706127 1309.33168193 1470.35247139 1314.75 1478.125 C1322.01395987 1488.54870471 1329.18039558 1499.03658524 1336.32617188 1509.54150391 C1342.73247678 1518.95099783 1349.20894915 1528.30871094 1355.75 1537.625 C1362.65590903 1547.46440091 1369.42922335 1557.39135558 1376.18603516 1567.33349609 C1380.61152793 1573.83891091 1385.05919939 1580.32920221 1389.50634766 1586.81982422 C1390.47251492 1588.23006836 1391.43835722 1589.6405352 1392.40380859 1591.05126953 C1397.19455217 1598.05047526 1402.01294584 1605.02836555 1406.88964844 1611.96801758 C1414.37408983 1622.61871041 1421.71285347 1633.36345423 1429.01953125 1644.13671875 C1433.55716813 1650.82675562 1438.13321519 1657.4897912 1442.72167969 1664.14501953 C1444.52010502 1666.75472841 1446.31537829 1669.36659937 1448.1105957 1671.97851562 C1449.4965767 1673.99501934 1450.88305273 1676.01118209 1452.26953125 1678.02734375 C1454.03950133 1680.60167457 1455.80767685 1683.17722191 1457.57421875 1685.75390625 C1462.97618979 1693.62898305 1468.41570531 1701.47704213 1473.875 1709.3125 C1480.43754028 1718.73379282 1486.9451205 1728.19086303 1493.41455078 1737.67626953 C1496.1478778 1741.68239928 1498.88644902 1745.68494024 1501.625 1749.6875 C1502.16519775 1750.47713135 1502.70539551 1751.2667627 1503.26196289 1752.08032227 C1507.61217344 1758.43741064 1511.97296983 1764.78716186 1516.33984375 1771.1328125 C1518.08427489 1773.66773869 1519.82643213 1776.20420008 1521.56640625 1778.7421875 C1526.92833892 1786.55940577 1532.32899652 1794.34861921 1537.75 1802.125 C1544.40731212 1811.67817169 1550.98661614 1821.28220169 1557.53515625 1830.91015625 C1561.90043942 1837.32799773 1566.29965812 1843.72225058 1570.70263672 1850.11425781 C1572.01369958 1852.0199126 1573.32171649 1853.92762422 1574.62890625 1855.8359375 C1578.47401689 1861.44559004 1582.32403285 1867.05036291 1586.2421875 1872.609375 C1593.42920059 1882.80840275 1600.45812625 1893.09364342 1607.3190918 1903.515625 C1611.1058955 1909.24689792 1615.02891727 1914.84375554 1619.09375 1920.38110352 C1621.91722271 1924.26012398 1624.61843333 1928.21801227 1627.3125 1932.1875 C1628.44778406 1933.85295499 1629.5832027 1935.51831824 1630.71875 1937.18359375 C1631.27433594 1937.99940918 1631.82992187 1938.81522461 1632.40234375 1939.65576172 C1634.69876752 1943.02530039 1637.00336695 1946.38916101 1639.3125 1949.75 C1639.74320801 1950.37704834 1640.17391602 1951.00409668 1640.61767578 1951.65014648 C1644.08038221 1956.68245555 1647.57152949 1961.69470945 1651.06518555 1966.70556641 C1669 1992.43283389 1669 1992.43283389 1669 1994 C1631.36865113 1994.38936515 1593.73760637 1994.68879044 1556.10464968 1994.8681106 C1551.65879311 1994.88937185 1547.2129405 1994.91137541 1542.76708984 1994.93383789 C1541.88202498 1994.93829717 1540.99696012 1994.94275645 1540.08507511 1994.94735085 C1525.7659747 1995.02126471 1511.44803806 1995.1552665 1497.12962738 1995.31159753 C1482.43044079 1995.47074382 1467.73186235 1995.56503388 1453.03184962 1995.59950441 C1443.9650162 1995.62279839 1434.90147199 1995.69626877 1425.83565167 1995.83457994 C1419.6132679 1995.92465742 1413.39257649 1995.95155702 1407.16958854 1995.92952342 C1403.5811273 1995.91866125 1399.99839599 1995.93491977 1396.41096306 1996.02649307 C1375.50000096 1996.53435973 1375.50000096 1996.53435973 1369.69399548 1992.33021617 C1365.86814786 1988.3848464 1363.29302609 1983.97436645 1360.97821569 1979.02034843 C1359.63741378 1976.25113601 1357.913265 1973.82099964 1356.109375 1971.3359375 C1354.98840805 1969.68308814 1353.86861213 1968.02944396 1352.75 1966.375 C1347.50723585 1958.65288229 1342.21442578 1950.96809163 1336.875 1943.3125 C1329.32802189 1932.48956089 1321.8696554 1921.60833909 1314.43652344 1910.70703125 C1308.04426596 1901.33543285 1301.61347229 1891.99280064 1295.125 1882.6875 C1288.50831523 1873.19748805 1281.97120287 1863.6557305 1275.46484375 1854.08984375 C1271.10368222 1847.67806192 1266.70909513 1841.28948323 1262.31054688 1834.90332031 C1260.03844939 1831.60353044 1257.76942087 1828.30163099 1255.5 1825 C1254.58334714 1823.66665718 1253.66668049 1822.33332383 1252.75 1821 C1247.25 1813 1247.25 1813 1245.8762207 1811.00170898 C1244.95556784 1809.66262209 1244.03483159 1808.32359253 1243.11401367 1806.98461914 C1240.88266308 1803.73976998 1238.65256052 1800.49408198 1236.42578125 1797.24609375 C1231.06622751 1789.43293873 1225.66831807 1781.64752861 1220.25 1773.875 C1213.59268788 1764.32182831 1207.01338386 1754.71779831 1200.46484375 1745.08984375 C1196.09659201 1738.66763788 1191.69447286 1732.26896454 1187.28857422 1725.87255859 C1186.00426266 1724.0061945 1184.72244649 1722.13814195 1183.44140625 1720.26953125 C1178.07709343 1712.44825057 1172.67368889 1704.655233 1167.25 1696.875 C1160.59268788 1687.32182831 1154.01338386 1677.71779831 1147.46484375 1668.08984375 C1143.10368222 1661.67806192 1138.70909513 1655.28948323 1134.31054688 1648.90332031 C1132.50065314 1646.27479358 1130.6927844 1643.64487701 1128.88500977 1641.01489258 C1127.96115709 1639.6708848 1127.03716604 1638.32697213 1126.11303711 1636.9831543 C1123.88198529 1633.73881177 1121.65222874 1630.49359804 1119.42578125 1627.24609375 C1114.06622751 1619.43293873 1108.66831807 1611.64752861 1103.25 1603.875 C1095.98604013 1593.45129529 1088.81960442 1582.96341476 1081.67382812 1572.45849609 C1075.26752322 1563.04900217 1068.79105085 1553.69128906 1062.25 1544.375 C1055.34409097 1534.53559909 1048.57077665 1524.60864442 1041.81396484 1514.66650391 C1037.38847207 1508.16108909 1032.94080061 1501.67079779 1028.49365234 1495.18017578 C1027.52748508 1493.76993164 1026.56164278 1492.3594648 1025.59619141 1490.94873047 C1020.80544783 1483.94952474 1015.98705416 1476.97163445 1011.11035156 1470.03198242 C1003.62591017 1459.38128959 996.28714653 1448.63654577 988.98046875 1437.86328125 C984.44283187 1431.17324438 979.86678481 1424.5102088 975.27832031 1417.85498047 C973.0159335 1414.5720135 970.75831857 1411.28576611 968.5 1408 C967.58595134 1406.6705634 966.67188887 1405.3411363 965.7578125 1404.01171875 C963.89785653 1401.30638834 962.03855212 1398.60061164 960.1796875 1395.89453125 C955.22875596 1388.68817534 950.26597887 1381.49042454 945.28515625 1374.3046875 C942.36578731 1370.08796161 939.46794646 1365.85645802 936.56713867 1361.62695312 C933.83013495 1357.64280746 931.07558358 1353.67159687 928.3046875 1349.7109375 C920.58786613 1338.67543356 912.98332348 1327.58058119 905.5793457 1316.33203125 C901.82809477 1310.65371727 897.93728749 1305.11175272 893.91064453 1299.62548828 C891.08601071 1295.74405305 888.38297656 1291.7842213 885.6875 1287.8125 C884.55875364 1286.15614103 883.42984477 1284.49989279 882.30078125 1282.84375 C881.46861084 1281.62171875 881.46861084 1281.62171875 880.61962891 1280.375 C878.21417376 1276.84767596 875.79552591 1273.32949226 873.375 1269.8125 C872.92922607 1269.16450439 872.48345215 1268.51650879 872.02416992 1267.84887695 C871.13044475 1266.54975401 870.23664635 1265.25068145 869.34277344 1263.95166016 C867.06091481 1260.63508236 864.78054245 1257.3174829 862.5 1254 C861.58334024 1252.66666192 860.66667358 1251.33332858 859.75 1250 C854.25 1242 854.25 1242 852.87573242 1240.00097656 C851.95673481 1238.66431207 851.03762629 1237.32772382 850.1184082 1235.99121094 C847.86150071 1232.70945265 845.60637737 1229.42650124 843.35546875 1226.140625 C839.51528946 1220.53897985 835.6705559 1214.9419597 831.7578125 1209.390625 C824.57079941 1199.19159725 817.54187375 1188.90635658 810.6809082 1178.484375 C806.88545018 1172.74000389 802.95363412 1167.12965907 798.87988281 1161.5793457 C796.19595987 1157.89679429 793.62269751 1154.14415614 791.0625 1150.375 C790.52383301 1149.58504639 789.98516602 1148.79509277 789.43017578 1147.98120117 C787.61799976 1145.32223542 785.80870228 1142.66132982 784 1140 C783.31631348 1138.99437012 782.63262695 1137.98874023 781.92822266 1136.95263672 C779.00901798 1132.65867878 776.08996061 1128.36462098 773.17163086 1124.07006836 C767.89217652 1116.30363292 762.58707352 1108.55552275 757.25634766 1100.82421875 C755.98495966 1098.97816141 754.71663889 1097.13003339 753.44921875 1095.28125 C748.08252459 1087.45590773 742.67637431 1079.65908521 737.25 1071.875 C729.98604013 1061.45129529 722.81960442 1050.96341476 715.67382812 1040.45849609 C708.59414251 1030.05994969 701.42082491 1019.7295588 694.19775391 1009.43017578 C689.19715481 1002.29489021 684.25076579 995.12375591 679.32666016 987.93554688 C677.05487944 984.62110493 674.77713202 981.31076663 672.5 978 C669.80647452 974.08348118 667.11358884 970.16653954 664.42578125 966.24609375 C659.0238104 958.37101723 653.58433386 950.52293039 648.125 942.6875 C641.52948462 933.21976915 634.99478116 923.71234021 628.49072266 914.18164062 C626.12572012 910.72051016 623.75091491 907.26614515 621.375 903.8125 C620.92713135 903.1613623 620.4792627 902.51022461 620.01782227 901.83935547 C618.67873054 899.89277809 617.33940887 897.94635916 616 896 C614.20804835 893.39602926 612.41637092 890.79187028 610.625 888.1875 C610.17406982 887.53209229 609.72313965 886.87668457 609.25854492 886.20141602 C606.80255994 882.62958497 604.35261041 879.05375529 601.91015625 875.47265625 C596.36365028 867.34275324 590.78310991 859.24021987 585.125 851.1875 C578.25881171 841.41189367 571.52859932 831.54658367 564.81396484 821.66650391 C561.96664504 817.48098212 559.10913591 813.30245593 556.25 809.125 C555.71769775 808.34721191 555.18539551 807.56942383 554.63696289 806.76806641 C550.31954304 800.46214197 545.99262997 794.16277669 541.66015625 787.8671875 C539.91572511 785.33226131 538.17356787 782.79579992 536.43359375 780.2578125 C531.07166108 772.44059423 525.67100348 764.65138079 520.25 756.875 C513.59537281 747.32568116 507.01872385 737.72551895 500.47265625 728.1015625 C493.4645976 717.79842599 486.38369636 707.54561486 479.28515625 697.3046875 C476.36578731 693.08796161 473.46794646 688.85645802 470.56713867 684.62695312 C467.83013495 680.64280746 465.07558358 676.67159687 462.3046875 672.7109375 C454.58786613 661.67543356 446.98332348 650.58058119 439.5793457 639.33203125 C435.82116199 633.64322304 431.92267676 628.09120466 427.88867188 622.59472656 C425.17632049 618.86839894 422.58433533 615.0656976 420 611.25 C415.11373362 604.06762915 410.16614379 596.93108717 405.1875 589.8125 C398.84886204 580.74063153 392.66351437 571.57543071 386.57885742 562.33129883 C382.8413245 556.67373652 378.962955 551.1546767 374.95117188 545.68847656 C371.86925276 541.4419684 368.93699964 537.09740497 366 532.75 C360.71699415 524.96423684 355.38526345 517.21537501 350 509.5 C344.15825836 501.127591 338.38246118 492.71334814 332.64453125 484.26953125 C328.13964205 477.64913852 323.58194684 471.06725391 319 464.5 C312.423756 455.07327756 305.92902181 445.59366322 299.46484375 436.08984375 C295.10368222 429.67806192 290.70909513 423.28948323 286.31054688 416.90332031 C284.03844937 413.60353042 281.76943777 410.3016194 279.5 407 C278.58594442 405.67056816 277.67188193 404.34114107 276.7578125 403.01171875 C274.89785653 400.30638834 273.03855212 397.60061164 271.1796875 394.89453125 C266.96264118 388.75638605 262.74175251 382.62110549 258.5 376.5 C253.78441376 369.69512378 249.09487515 362.87248066 244.40722656 356.04833984 C241.64419661 352.02651103 238.87945369 348.00585935 236.11450195 343.98535156 C233.88300196 340.74024909 231.65272642 337.49432396 229.42578125 334.24609375 C224.02381021 326.37101695 218.58429469 318.52295787 213.125 310.6875 C206.56245972 301.26620718 200.0548795 291.80913697 193.58544922 282.32373047 C188.73194732 275.21014392 183.86574793 268.10521351 179 261 C178.54447754 260.33468262 178.08895508 259.66936523 177.61962891 258.98388672 C171.8255409 250.525505 165.98573322 242.09984025 160.125 233.6875 C153.52651045 224.21539937 146.98890425 214.70356788 140.48193359 205.16845703 C138.16204925 201.77385856 135.83124997 198.38679872 133.5 195 C129.49032176 189.17326472 125.49239075 183.33859316 121.5 177.5 C116.56393095 170.28177958 111.61743367 163.07085711 106.66015625 155.8671875 C104.91572511 153.33226131 103.17356787 150.79579992 101.43359375 148.2578125 C96.07166108 140.44059423 90.67100348 132.65138079 85.25 124.875 C78.59268788 115.32182831 72.01338386 105.71779831 65.46484375 96.08984375 C61.10368222 89.67806192 56.70909513 83.28948323 52.31054688 76.90332031 C50.03844937 73.60353042 47.76943777 70.3016194 45.5 67 C44.58594442 65.67056816 43.67188193 64.34114107 42.7578125 63.01171875 C40.89785653 60.30638834 39.03855212 57.60061164 37.1796875 54.89453125 C32.2377565 47.70127613 27.28385672 40.51670755 22.3125 33.34375 C19.23299664 28.89557849 16.17101617 24.43534536 13.11010742 19.97436523 C10.85152579 16.68461379 8.58573355 13.4004095 6.30078125 10.12890625 C5.88054687 9.52626953 5.4603125 8.92363281 5.02734375 8.30273438 C3.8807046 6.66020145 2.73145003 5.01949523 1.58203125 3.37890625 C0 1 0 1 0 0 Z " fill="#FEFEFE" transform="translate(1167,1003)"/>
</svg>
